<svg width="1200" height="630" viewBox="0 0 1200 630" fill="none" xmlns="http://www.w3.org/2000/svg">
  <defs>
    <linearGradient id="bg" x1="90" y1="40" x2="1120" y2="610" gradientUnits="userSpaceOnUse">
      <stop stop-color="#F7F3FF"/>
      <stop offset="0.5" stop-color="#F6EEFF"/>
      <stop offset="1" stop-color="#EEF4FF"/>
    </linearGradient>
    <radialGradient id="glow1" cx="0" cy="0" r="1" gradientUnits="userSpaceOnUse" gradientTransform="translate(230 120) rotate(47.8) scale(345 234)">
      <stop stop-color="#B9A8FF" stop-opacity="0.95"/>
      <stop offset="1" stop-color="#B9A8FF" stop-opacity="0"/>
    </radialGradient>
    <radialGradient id="glow2" cx="0" cy="0" r="1" gradientUnits="userSpaceOnUse" gradientTransform="translate(1015 178) rotate(132.6) scale(278 214)">
      <stop stop-color="#FFC0EA" stop-opacity="0.92"/>
      <stop offset="1" stop-color="#FFC0EA" stop-opacity="0"/>
    </radialGradient>
    <radialGradient id="glow3" cx="0" cy="0" r="1" gradientUnits="userSpaceOnUse" gradientTransform="translate(906 520) rotate(163.7) scale(310 190)">
      <stop stop-color="#CBE6FF" stop-opacity="0.9"/>
      <stop offset="1" stop-color="#CBE6FF" stop-opacity="0"/>
    </radialGradient>
    <linearGradient id="panel" x1="170" y1="120" x2="1015" y2="525" gradientUnits="userSpaceOnUse">
      <stop stop-color="rgba(255,255,255,0.94)"/>
      <stop offset="1" stop-color="rgba(255,255,255,0.88)"/>
    </linearGradient>
    <linearGradient id="title" x1="175" y1="145" x2="513" y2="430" gradientUnits="userSpaceOnUse">
      <stop stop-color="#5C42F5"/>
      <stop offset="1" stop-color="#A43DC8"/>
    </linearGradient>
    <filter id="shadow" x="118" y="80" width="964" height="470" filterUnits="userSpaceOnUse" color-interpolation-filters="sRGB">
      <feFlood flood-opacity="0" result="BackgroundImageFix"/>
      <feColorMatrix in="SourceAlpha" type="matrix" values="0 0 0 0 0 0 0 0 0 0 0 0 0 0 0 0 0 0 127 0" result="hardAlpha"/>
      <feOffset dy="18"/>
      <feGaussianBlur stdDeviation="26"/>
      <feColorMatrix type="matrix" values="0 0 0 0 0.333333 0 0 0 0 0.25098 0 0 0 0 0.592157 0 0 0 0.15 0"/>
      <feBlend mode="normal" in2="BackgroundImageFix" result="effect1_dropShadow_1_1"/>
      <feBlend mode="normal" in="SourceGraphic" in2="effect1_dropShadow_1_1" result="shape"/>
    </filter>
  </defs>

  <rect width="1200" height="630" fill="url(#bg)"/>
  <rect width="1200" height="630" fill="url(#glow1)"/>
  <rect width="1200" height="630" fill="url(#glow2)"/>
  <rect width="1200" height="630" fill="url(#glow3)"/>

  <g opacity="0.07">
    <path d="M0 98C121 72 225 62 357 96C474 126 546 173 659 173C771 173 851 135 955 121C1040 109 1123 113 1200 127V630H0V98Z" fill="#6F57FF"/>
    <path d="M0 180C153 219 245 255 351 255C454 255 521 220 620 213C731 206 840 232 938 281C1032 328 1111 392 1200 427V630H0V180Z" fill="#EA5BBD"/>
  </g>

  <g filter="url(#shadow)">
    <rect x="170" y="114" width="860" height="384" rx="34" fill="white" fill-opacity="0.88"/>
    <rect x="170.75" y="114.75" width="858.5" height="382.5" rx="33.25" stroke="#4C3D83" stroke-opacity="0.14" stroke-width="1.5"/>
  </g>

  <text x="214" y="176" fill="#B7791F" font-family="Inter, Arial, sans-serif" font-size="26" font-weight="700" letter-spacing="4.2">TOTALLY UNAUTHORIZED EDITION</text>
  <text x="214" y="305" fill="url(#title)" font-family="Cormorant Garamond, Times New Roman, serif" font-size="148" font-weight="700">DSM-6</text>
  <text x="214" y="370" fill="#20163F" font-family="Inter, Arial, sans-serif" font-size="38" font-weight="800" letter-spacing="1.2">EXTREMELY CONTEMPORARY DISORDERS EDITION</text>
  <text x="214" y="431" fill="#5B517E" font-family="Inter, Arial, sans-serif" font-size="30" font-weight="500">A satirical field guide to platform-induced breakdowns, vibe injuries, and</text>
  <text x="214" y="469" fill="#5B517E" font-family="Inter, Arial, sans-serif" font-size="30" font-weight="500">administrative dread for the browser-tab era.</text>

  <g transform="translate(842 156)">
    <rect x="0" y="0" width="146" height="146" rx="28" fill="#6F57FF" fill-opacity="0.12"/>
    <text x="32" y="92" font-family="Inter, Arial, sans-serif" font-size="64">⚕️</text>
    <rect x="0" y="166" width="146" height="146" rx="28" fill="#EA5BBD" fill-opacity="0.12"/>
    <text x="38" y="257" font-family="Inter, Arial, sans-serif" font-size="58">🧠</text>
  </g>

  <g transform="translate(985 156)">
    <rect x="0" y="0" width="1.5" height="220" fill="#4C3D83" fill-opacity="0.12"/>
  </g>

  <g transform="translate(1015 170)">
    <text x="0" y="0" fill="#6F57FF" font-family="Inter, Arial, sans-serif" font-size="20" font-weight="800" letter-spacing="3">QUICK ORIENTATION</text>
    <text x="0" y="58" fill="#20163F" font-family="Inter, Arial, sans-serif" font-size="26" font-weight="700">48 fake disorders</text>
    <text x="0" y="102" fill="#20163F" font-family="Inter, Arial, sans-serif" font-size="26" font-weight="700">Interactive diagnostic browser</text>
    <text x="0" y="146" fill="#20163F" font-family="Inter, Arial, sans-serif" font-size="26" font-weight="700">Appendices and treatment notes</text>
    <text x="0" y="190" fill="#20163F" font-family="Inter, Arial, sans-serif" font-size="26" font-weight="700">Absolutely not billable</text>
  </g>
</svg>
